<mxfile host="65bd71144e">
    <diagram id="QYWAaOgR0iep5D2_Q1Ln" name="페이지-1">
        <mxGraphModel dx="1409" dy="461" grid="1" gridSize="10" guides="1" tooltips="1" connect="1" arrows="1" fold="1" page="1" pageScale="1" pageWidth="827" pageHeight="1169" math="0" shadow="0">
            <root>
                <mxCell id="0"/>
                <mxCell id="1" parent="0"/>
                <mxCell id="8" style="edgeStyle=none;html=1;exitX=1;exitY=0.5;exitDx=0;exitDy=0;strokeWidth=3;" edge="1" parent="1" source="2" target="3">
                    <mxGeometry relative="1" as="geometry"/>
                </mxCell>
                <mxCell id="2" value="New" style="ellipse;whiteSpace=wrap;html=1;strokeWidth=3;fontFamily=배달의민족 주아;fontSize=25;" vertex="1" parent="1">
                    <mxGeometry x="80" y="230" width="120" height="80" as="geometry"/>
                </mxCell>
                <mxCell id="10" style="edgeStyle=none;html=1;exitX=1;exitY=0.5;exitDx=0;exitDy=0;entryX=0;entryY=0.5;entryDx=0;entryDy=0;strokeWidth=3;" edge="1" parent="1" source="3" target="4">
                    <mxGeometry relative="1" as="geometry"/>
                </mxCell>
                <mxCell id="11" style="edgeStyle=none;html=1;exitX=1;exitY=1;exitDx=0;exitDy=0;entryX=0;entryY=0;entryDx=0;entryDy=0;strokeWidth=3;" edge="1" parent="1" source="3" target="7">
                    <mxGeometry relative="1" as="geometry"/>
                </mxCell>
                <mxCell id="17" value="join(ms)&lt;div&gt;wait(ms)&lt;/div&gt;&lt;div&gt;sleep(ms)&lt;/div&gt;" style="edgeLabel;html=1;align=center;verticalAlign=middle;resizable=0;points=[];fontFamily=배달의민족 주아;fontSize=20;" vertex="1" connectable="0" parent="11">
                    <mxGeometry x="-0.0264" y="4" relative="1" as="geometry">
                        <mxPoint as="offset"/>
                    </mxGeometry>
                </mxCell>
                <mxCell id="12" style="edgeStyle=none;html=1;exitX=0.5;exitY=1;exitDx=0;exitDy=0;entryX=0.5;entryY=0;entryDx=0;entryDy=0;strokeWidth=3;" edge="1" parent="1" source="3" target="5">
                    <mxGeometry relative="1" as="geometry"/>
                </mxCell>
                <mxCell id="14" value="synchronized" style="edgeLabel;html=1;align=center;verticalAlign=middle;resizable=0;points=[];fontFamily=배달의민족 주아;fontSize=20;" vertex="1" connectable="0" parent="12">
                    <mxGeometry x="-0.3333" y="-2" relative="1" as="geometry">
                        <mxPoint x="2" y="10" as="offset"/>
                    </mxGeometry>
                </mxCell>
                <mxCell id="13" style="edgeStyle=none;html=1;exitX=0;exitY=1;exitDx=0;exitDy=0;entryX=1;entryY=0;entryDx=0;entryDy=0;strokeWidth=3;" edge="1" parent="1" source="3" target="6">
                    <mxGeometry relative="1" as="geometry"/>
                </mxCell>
                <mxCell id="18" value="join()&lt;div&gt;wait()&lt;/div&gt;" style="edgeLabel;html=1;align=center;verticalAlign=middle;resizable=0;points=[];fontFamily=배달의민족 주아;fontSize=20;" vertex="1" connectable="0" parent="13">
                    <mxGeometry x="-0.1607" y="-3" relative="1" as="geometry">
                        <mxPoint as="offset"/>
                    </mxGeometry>
                </mxCell>
                <mxCell id="3" value="Runnable" style="ellipse;whiteSpace=wrap;html=1;strokeWidth=3;fontFamily=배달의민족 주아;fontSize=25;" vertex="1" parent="1">
                    <mxGeometry x="360" y="230" width="120" height="80" as="geometry"/>
                </mxCell>
                <mxCell id="4" value="Terminate" style="ellipse;whiteSpace=wrap;html=1;strokeWidth=3;fontFamily=배달의민족 주아;fontSize=25;" vertex="1" parent="1">
                    <mxGeometry x="650" y="230" width="120" height="80" as="geometry"/>
                </mxCell>
                <mxCell id="5" value="Blocked" style="ellipse;whiteSpace=wrap;html=1;strokeWidth=3;fontFamily=배달의민족 주아;fontSize=25;" vertex="1" parent="1">
                    <mxGeometry x="360" y="400" width="120" height="80" as="geometry"/>
                </mxCell>
                <mxCell id="6" value="Waiting" style="ellipse;whiteSpace=wrap;html=1;strokeWidth=3;fontFamily=배달의민족 주아;fontSize=25;" vertex="1" parent="1">
                    <mxGeometry x="80" y="400" width="120" height="80" as="geometry"/>
                </mxCell>
                <mxCell id="7" value="Timed Waiting" style="ellipse;whiteSpace=wrap;html=1;strokeWidth=3;fontFamily=배달의민족 주아;fontSize=25;" vertex="1" parent="1">
                    <mxGeometry x="660" y="400" width="120" height="80" as="geometry"/>
                </mxCell>
                <mxCell id="15" value="" style="curved=1;endArrow=classic;html=1;exitX=1;exitY=0;exitDx=0;exitDy=0;entryX=0.5;entryY=0;entryDx=0;entryDy=0;strokeWidth=3;" edge="1" parent="1" source="3" target="3">
                    <mxGeometry width="50" height="50" relative="1" as="geometry">
                        <mxPoint x="660" y="280" as="sourcePoint"/>
                        <mxPoint x="710" y="230" as="targetPoint"/>
                        <Array as="points">
                            <mxPoint x="490" y="190"/>
                            <mxPoint x="470" y="140"/>
                        </Array>
                    </mxGeometry>
                </mxCell>
                <mxCell id="16" value="yield()" style="edgeLabel;html=1;align=center;verticalAlign=middle;resizable=0;points=[];fontFamily=배달의민족 주아;fontSize=20;" vertex="1" connectable="0" parent="15">
                    <mxGeometry x="-0.2462" y="1" relative="1" as="geometry">
                        <mxPoint y="36" as="offset"/>
                    </mxGeometry>
                </mxCell>
            </root>
        </mxGraphModel>
    </diagram>
</mxfile>